<?xml version="1.0" standalone="no"?>
<!DOCTYPE svg PUBLIC "-//W3C//DTD SVG 20010904//EN"
 "http://www.w3.org/TR/2001/REC-SVG-20010904/DTD/svg10.dtd">
<svg version="1.0" xmlns="http://www.w3.org/2000/svg"
 width="73.000000pt" height="16.000000pt" viewBox="0 0 73.000000 16.000000"
 preserveAspectRatio="xMidYMid meet">

<g transform="translate(0.000000,16.000000) scale(0.100000,-0.100000)"
fill="#000000" stroke="none">
<path d="M380 98 l0 -32 -28 27 c-41 40 -52 35 -52 -23 0 -38 4 -50 15 -50 10
0 15 10 15 27 l0 27 28 -27 c41 -39 52 -35 52 22 0 34 -4 51 -15 55 -11 4 -15
-2 -15 -26z"/>
<path d="M450 75 c0 -42 3 -55 15 -55 8 0 15 9 15 20 0 11 4 20 10 20 5 0 15
-9 22 -20 7 -11 21 -20 31 -20 16 0 16 3 -4 30 -22 29 -22 30 -4 50 18 19 18
20 0 20 -10 0 -27 -7 -37 -17 -16 -14 -18 -14 -18 -1 0 9 -7 18 -15 22 -12 4
-15 -5 -15 -49z"/>
<path d="M130 70 c0 -38 4 -50 15 -50 10 0 15 10 15 27 0 25 1 25 18 10 17
-15 19 -15 35 0 16 16 17 16 17 -10 0 -17 5 -27 15 -27 11 0 15 12 15 50 0 43
-3 50 -20 50 -10 0 -25 -10 -31 -22 l-12 -22 -17 22 c-32 39 -50 29 -50 -28z"/>
</g>
</svg>
